 <svg  version="1.0" xmlns="http://www.w3.org/2000/svg"  width="9000.000000pt" height="9000.000000pt" viewBox="0 0 750 750"  preserveAspectRatio="xMidYMid meet">  <g transform="translate(0.000000,900.000000) scale(0.100000,-0.100000)" fill="#ffffff" stroke="none"> <path d="M4719 7788 c-93 -48 -485 -308 -704 -466 -148 -107 -355 -266 -465 -357 -54 -44 -119 -98 -146 -120 -330 -271 -724 -668 -987 -995 -250 -311 -500 -723 -597 -982 -19 -53 -66 -108 -92 -108 -15 0 -135 62 -233 122 -216 130 -267 153 -302 134 -35 -18 -65 -64 -70 -106 -5 -36 -2 -43 29 -73 29 -26 186 -122 343 -208 109 -60 162 -98 178 -130 18 -35 18 -40 -1 -164 -6 -33 -16 -102 -23 -153 -11 -83 -15 -95 -41 -117 -29 -25 -32 -25 -224 -25 -256 0 -273 -7 -277 -109 -2 -47 19 -90 47 -97 12 -3 113 -6 226 -7 270 -3 268 -1 304 -157 10 -41 25 -98 33 -126 19 -68 20 -148 2 -170 -7 -9 -151 -108 -320 -220 -338 -225 -345 -232 -314 -298 10 -20 31 -48 48 -62 55 -46 63 -42 412 193 251 169 286 184 337 143 15 -12 59 -63 98 -113 38 -51 97 -120 130 -155 39 -41 72 -88 95 -138 19 -41 35 -78 35 -82 0 -8 96 -258 149 -387 16 -38 39 -95 51 -125 61 -149 86 -138 214 95 38 69 80 137 92 150 40 43 64 42 238 -13 246 -78 475 -130 664 -152 188 -21 250 -41 280 -90 7 -12 60 -137 116 -279 116 -289 129 -316 151 -324 44 -17 61 9 298 468 17 33 42 75 56 93 44 60 60 63 309 68 298 6 631 42 827 91 236 57 432 153 665 323 131 96 150 94 291 -27 186 -159 297 -252 335 -283 24 -19 86 -70 139 -113 78 -65 101 -79 132 -80 31 -1 42 5 73 41 21 23 40 51 43 62 9 35 -26 76 -151 182 -68 56 -145 121 -171 143 -26 22 -67 56 -91 75 -211 170 -270 228 -270 267 0 26 36 80 215 326 51 70 64 67 352 -68 273 -129 320 -145 356 -126 26 14 67 89 67 122 0 34 -47 69 -178 131 -437 207 -442 210 -442 270 1 18 16 91 34 163 48 185 48 185 336 221 69 8 154 19 190 24 36 5 116 15 179 24 142 18 165 32 169 101 4 60 -14 104 -47 117 -15 5 -54 7 -91 3 -94 -9 -355 -43 -425 -55 -33 -5 -92 -10 -131 -10 -98 0 -109 13 -109 124 0 58 5 89 16 107 16 24 67 115 111 199 21 40 80 177 136 316 46 112 140 406 158 494 3 14 8 32 11 40 17 42 55 220 78 365 9 55 20 114 26 131 5 17 9 43 9 59 0 15 7 62 15 104 23 117 38 370 38 646 1 336 -23 563 -82 770 -34 122 -59 219 -65 256 -3 19 -20 57 -37 83 -29 47 -31 48 -70 43 -39 -5 -359 -159 -427 -204 -18 -13 -35 -23 -37 -23 -2 0 -38 -20 -79 -45 -42 -25 -79 -45 -81 -45 -3 0 -22 -10 -43 -23 -20 -13 -80 -46 -132 -74 -52 -27 -131 -70 -175 -95 -44 -25 -123 -68 -175 -95 -175 -92 -264 -140 -430 -233 -91 -51 -221 -122 -290 -158 -69 -35 -150 -80 -181 -98 -31 -19 -59 -34 -63 -34 -4 0 -23 -10 -44 -23 -20 -13 -68 -41 -107 -62 -38 -21 -88 -49 -110 -62 -53 -30 -83 -43 -101 -43 -30 0 -140 52 -163 78 -21 23 -23 32 -17 84 3 31 12 86 20 120 33 142 40 218 39 404 -2 270 -38 573 -75 620 -25 31 -33 30 -109 -8z m2566 -634 c36 -29 48 -48 65 -102 11 -37 25 -81 31 -99 5 -17 19 -84 30 -150 28 -159 30 -496 5 -698 -18 -144 -67 -421 -90 -510 -7 -27 -21 -79 -30 -115 -27 -101 -47 -173 -58 -200 -5 -14 -17 -45 -25 -70 -46 -137 -169 -399 -191 -408 -20 -7 -31 8 -78 119 -50 114 -88 185 -148 274 -23 33 -52 79 -66 102 -70 118 -337 386 -515 518 -22 16 -44 33 -50 37 -14 11 -198 131 -221 144 -11 7 -44 24 -73 39 -28 15 -56 35 -61 44 -11 21 17 86 62 145 83 108 394 385 572 509 48 34 145 102 215 151 144 102 288 193 411 260 111 59 153 61 215 10z m-4934 -2204 c63 -113 120 -201 178 -275 99 -126 176 -229 246 -329 33 -47 75 -106 93 -130 37 -52 39 -75 13 -154 -48 -140 -114 -252 -203 -343 -133 -135 -311 -173 -440 -93 -126 78 -207 208 -245 394 -23 116 -13 355 21 483 45 167 137 324 249 421 53 47 73 53 88 26z m2506 -300 c191 -235 227 -558 94 -834 -91 -188 -255 -332 -456 -401 -108 -37 -305 -47 -423 -20 -211 48 -429 222 -523 416 -50 103 -100 332 -77 354 3 3 27 12 54 19 42 12 113 42 332 141 18 8 48 21 67 29 20 9 50 22 68 30 17 7 68 28 112 46 44 18 98 40 120 50 22 10 67 30 100 45 33 15 74 33 90 40 17 7 62 27 100 45 73 33 112 50 168 74 17 7 43 18 57 24 43 19 63 9 117 -58z"/> </g> </svg> 