<?xml version="1.0" standalone="no"?>
<!DOCTYPE svg PUBLIC "-//W3C//DTD SVG 20010904//EN"
 "http://www.w3.org/TR/2001/REC-SVG-20010904/DTD/svg10.dtd">
<svg version="1.0" xmlns="http://www.w3.org/2000/svg"
 width="450.000000pt" height="450.000000pt" viewBox="0 0 450.000000 450.000000"
 preserveAspectRatio="xMidYMid meet">
<metadata>
Created by potrace 1.10, written by Peter Selinger 2001-2011
</metadata>
<g transform="translate(0.000000,450.000000) scale(0.100000,-0.100000)"
fill="#000000" stroke="none">
<path d="M1684 4173 c-3 -10 -14 -40 -25 -67 -10 -27 -19 -53 -19 -58 0 -6 -6
-24 -14 -41 -8 -18 -30 -79 -50 -137 -19 -58 -56 -163 -81 -235 -26 -71 -51
-146 -57 -165 -5 -19 -14 -39 -18 -45 -4 -5 -12 -26 -18 -45 -6 -19 -25 -73
-42 -120 -18 -47 -36 -98 -40 -115 -5 -16 -21 -61 -35 -100 -15 -38 -33 -88
-40 -110 -8 -22 -24 -67 -37 -99 l-23 -59 -130 -59 c-149 -67 -186 -84 -310
-142 -49 -24 -154 -71 -232 -107 -78 -35 -142 -68 -143 -72 0 -8 428 -3 680 8
145 7 165 2 178 -43 23 -77 34 -144 26 -152 -12 -12 -121 -40 -154 -40 -14 0
-72 -9 -130 -20 -58 -11 -126 -22 -152 -25 -27 -4 -48 -11 -48 -16 0 -6 127
-138 281 -294 236 -238 280 -287 270 -299 -7 -8 -9 -21 -5 -27 4 -8 3 -9 -5
-5 -13 9 -55 -16 -139 -82 -58 -44 -262 -196 -400 -296 -57 -42 -62 -49 -62
-84 0 -33 8 -45 68 -103 214 -209 484 -373 767 -467 115 -38 200 -61 245 -67
25 -4 79 -13 120 -22 113 -24 455 -24 580 0 52 10 109 20 126 22 17 3 58 12
90 21 32 8 73 19 89 23 101 26 367 140 445 191 14 9 66 43 115 76 117 76 229
170 336 280 101 106 142 158 137 178 -2 8 -44 49 -95 93 -205 175 -308 266
-316 279 -5 9 14 56 54 132 34 64 89 169 121 232 33 63 82 156 109 206 27 50
49 97 49 103 0 21 -67 14 -388 -43 -107 -19 -105 -22 -97 157 5 96 12 150 20
157 7 6 32 16 56 24 24 8 60 20 79 27 19 7 58 20 85 30 28 10 75 27 105 37
115 42 206 75 233 84 48 18 29 28 -52 28 -43 0 -100 4 -127 9 -27 5 -123 15
-214 22 -91 6 -171 17 -177 23 -13 12 -38 123 -73 326 -12 69 -30 170 -40 225
-11 55 -29 156 -40 225 -12 69 -30 166 -41 215 -10 50 -19 101 -19 114 0 13
-9 62 -19 110 -11 47 -22 103 -26 124 -3 20 -11 37 -16 37 -11 0 -112 -60
-229 -135 -197 -126 -576 -355 -588 -355 -13 0 -94 87 -189 202 -133 162 -283
337 -294 343 -5 4 -12 -2 -15 -12z m143 -1731 c10 -6 8 -17 -8 -48 -14 -27
-18 -49 -14 -73 l6 -34 -58 6 c-71 7 -155 33 -207 65 -48 30 -39 42 54 71 66
20 203 28 227 13z m735 -62 c-2 -14 -6 -49 -9 -77 l-5 -53 -42 0 c-87 0 -256
63 -256 95 0 12 38 26 140 54 19 5 67 9 105 8 68 -2 70 -3 67 -27z m-497 -19
c3 -6 -4 -15 -15 -21 -17 -9 -20 -8 -20 10 0 20 24 28 35 11z m739 -40 c8 -12
-21 -34 -34 -26 -17 11 -11 35 9 35 11 0 22 -4 25 -9z"/>
</g>
</svg>
